<svg width="20" height="24" viewBox="0 0 20 24" fill="none" xmlns="http://www.w3.org/2000/svg">
<path d="M2.41669 23.6666C1.95002 23.6666 1.54169 23.4916 1.19169 23.1416C0.841687 22.7916 0.666687 22.3833 0.666687 21.9166V6.74992C0.666687 6.28325 0.841687 5.87492 1.19169 5.52492C1.54169 5.17492 1.95002 4.99992 2.41669 4.99992H5.62502V4.70825C5.62502 3.48325 6.04794 2.44784 6.89377 1.602C7.7396 0.756169 8.77502 0.333252 10 0.333252C11.225 0.333252 12.2604 0.756169 13.1063 1.602C13.9521 2.44784 14.375 3.48325 14.375 4.70825V4.99992H17.5834C18.05 4.99992 18.4584 5.17492 18.8084 5.52492C19.1584 5.87492 19.3334 6.28325 19.3334 6.74992V21.9166C19.3334 22.3833 19.1584 22.7916 18.8084 23.1416C18.4584 23.4916 18.05 23.6666 17.5834 23.6666H2.41669ZM2.41669 21.9166H17.5834V6.74992H14.375V9.37492C14.375 9.6277 14.2924 9.83673 14.1271 10.002C13.9618 10.1673 13.7528 10.2499 13.5 10.2499C13.2472 10.2499 13.0382 10.1673 12.8729 10.002C12.7077 9.83673 12.625 9.6277 12.625 9.37492V6.74992H7.37502V9.37492C7.37502 9.6277 7.29238 9.83673 7.1271 10.002C6.96183 10.1673 6.7528 10.2499 6.50002 10.2499C6.24724 10.2499 6.03821 10.1673 5.87294 10.002C5.70766 9.83673 5.62502 9.6277 5.62502 9.37492V6.74992H2.41669V21.9166ZM7.37502 4.99992H12.625V4.70825C12.625 3.96936 12.3722 3.34714 11.8667 2.84159C11.3611 2.33603 10.7389 2.08325 10 2.08325C9.26113 2.08325 8.63891 2.33603 8.13335 2.84159C7.6278 3.34714 7.37502 3.96936 7.37502 4.70825V4.99992Z" fill="black"/>
</svg>
